<svg xmlns="http://www.w3.org/2000/svg" xmlns:xlink="http://www.w3.org/1999/xlink" viewBox="0 0 124.76 32.95"><defs><style>.cls-1{fill:none;}.cls-2{fill:url(#linear-gradient);}.cls-3{fill:url(#linear-gradient-2);}.cls-4{fill:url(#linear-gradient-3);}.cls-5{fill:url(#linear-gradient-4);}.cls-6{fill:url(#linear-gradient-5);}.cls-7{fill:url(#linear-gradient-6);}.cls-8{fill:url(#linear-gradient-7);}.cls-9{fill:url(#linear-gradient-8);}.cls-10{fill:url(#linear-gradient-9);}.cls-11{fill:url(#linear-gradient-10);}.cls-12{fill:url(#linear-gradient-11);}.cls-13{fill:url(#linear-gradient-12);}.cls-14,.cls-15{fill-rule:evenodd;}.cls-14{fill:url(#linear-gradient-13);}.cls-15{fill:url(#linear-gradient-14);}.cls-16{clip-path:url(#clip-path);}</style><linearGradient id="linear-gradient" x1="52.57" y1="9.96" x2="65.47" y2="9.96" gradientUnits="userSpaceOnUse"><stop offset="0" stop-color="#f05865"/><stop offset="1" stop-color="#ef4b76"/></linearGradient><linearGradient id="linear-gradient-2" x1="68.24" y1="9.69" x2="81.81" y2="9.69" xlink:href="#linear-gradient"/><linearGradient id="linear-gradient-3" x1="84.19" y1="9.96" x2="87.6" y2="9.96" xlink:href="#linear-gradient"/><linearGradient id="linear-gradient-4" x1="90.55" y1="9.55" x2="96.48" y2="9.55" xlink:href="#linear-gradient"/><linearGradient id="linear-gradient-5" x1="98.35" y1="9.96" x2="101.76" y2="9.96" xlink:href="#linear-gradient"/><linearGradient id="linear-gradient-6" x1="104.73" y1="10.81" x2="110.66" y2="10.81" xlink:href="#linear-gradient"/><linearGradient id="linear-gradient-7" x1="112.97" y1="15.71" x2="124.76" y2="15.71" xlink:href="#linear-gradient"/><linearGradient id="linear-gradient-8" x1="51.54" y1="27.77" x2="61.69" y2="27.77" xlink:href="#linear-gradient"/><linearGradient id="linear-gradient-9" x1="63.19" y1="27.65" x2="78.33" y2="27.65" xlink:href="#linear-gradient"/><linearGradient id="linear-gradient-10" x1="79.98" y1="27.77" x2="89.95" y2="27.77" xlink:href="#linear-gradient"/><linearGradient id="linear-gradient-11" x1="91.6" y1="27.65" x2="96.82" y2="27.65" xlink:href="#linear-gradient"/><linearGradient id="linear-gradient-12" x1="97.7" y1="27.77" x2="107.62" y2="27.77" xlink:href="#linear-gradient"/><linearGradient id="linear-gradient-13" x1="0" y1="16.47" x2="36.12" y2="16.47" xlink:href="#linear-gradient"/><linearGradient id="linear-gradient-14" x1="20.07" y1="21.01" x2="45.35" y2="21.01" xlink:href="#linear-gradient"/><clipPath id="clip-path"><rect class="cls-1" x="28.1" y="7.99" width="9.23" height="10.71"/></clipPath></defs><g id="Layer_2" data-name="Layer 2"><g id="Layer_1-2" data-name="Layer 1"><path class="cls-2" d="M65.47,19.08H62.09v-5H56v5H52.57V7.28A6.94,6.94,0,0,1,53,4.72a5.77,5.77,0,0,1,1.33-2,6,6,0,0,1,2.08-1.36A6.89,6.89,0,0,1,59,.85a7.08,7.08,0,0,1,2.58.46,6,6,0,0,1,2.09,1.36A5.9,5.9,0,0,1,65,4.72a6.93,6.93,0,0,1,.46,2.56ZM62.09,7.21A3,3,0,0,0,61.28,5,3.06,3.06,0,0,0,59,4.15,3,3,0,0,0,56.77,5,3,3,0,0,0,56,7.21v3.64h6.13Z"/><path class="cls-3" d="M81.81,12.48a7.27,7.27,0,0,1-.5,2.69,6.62,6.62,0,0,1-1.4,2.2,6.46,6.46,0,0,1-2.14,1.48,6.79,6.79,0,0,1-2.73.54,6.86,6.86,0,0,1-2.76-.54,6.46,6.46,0,0,1-2.14-1.48,6.73,6.73,0,0,1-1.4-2.19,7.27,7.27,0,0,1-.5-2.69V0h3.39l0,7.12a4.54,4.54,0,0,1,1.72-1.18,5.89,5.89,0,0,1,2.13-.38A5.74,5.74,0,0,1,78,6.1a6.13,6.13,0,0,1,2,1.49A7.41,7.41,0,0,1,81.31,9.8,7.25,7.25,0,0,1,81.81,12.48Zm-3.39,0A4.13,4.13,0,0,0,78.15,11a3.82,3.82,0,0,0-.73-1.2A3.24,3.24,0,0,0,76.34,9a3.18,3.18,0,0,0-2.63,0,3.56,3.56,0,0,0-1.08.81A3.87,3.87,0,0,0,71.9,11a4,4,0,0,0-.27,1.48A3.86,3.86,0,0,0,71.9,14a3.62,3.62,0,0,0,.73,1.18,3.53,3.53,0,0,0,1.08.8,3.18,3.18,0,0,0,2.63,0,3.47,3.47,0,0,0,1.08-.78A3.73,3.73,0,0,0,78.15,14,4,4,0,0,0,78.42,12.51Z"/><path class="cls-4" d="M84.19,4.44V2.54a1.65,1.65,0,0,1,.5-1.21A1.71,1.71,0,0,1,85.91.85a1.65,1.65,0,0,1,1.19.48,1.61,1.61,0,0,1,.5,1.21v1.9ZM87.6,19.08H84.22V5.87H87.6Z"/><path class="cls-5" d="M90.55,0h3.39V13.54a2.52,2.52,0,0,0,.63,2,2.6,2.6,0,0,0,1.91.48v3.07a6.26,6.26,0,0,1-2.57-.18,4.31,4.31,0,0,1-1.84-1.06A4.57,4.57,0,0,1,90.94,16a7.24,7.24,0,0,1-.39-2.45Z"/><path class="cls-6" d="M98.35,4.44V2.54a1.65,1.65,0,0,1,.5-1.21,1.69,1.69,0,0,1,1.22-.48,1.67,1.67,0,0,1,1.69,1.69v1.9Zm3.41,14.64H98.37V5.87h3.39Z"/><path class="cls-7" d="M110.66,19.05a6.26,6.26,0,0,1-2.57-.18,4.33,4.33,0,0,1-1.84-1.07A4.84,4.84,0,0,1,105.12,16a7.2,7.2,0,0,1-.39-2.45v-11h3.39V5.87h2.38v3h-2.38v4.67a2.54,2.54,0,0,0,.63,2,2.53,2.53,0,0,0,1.91.49Z"/><path class="cls-8" d="M124.76,19.62a6.68,6.68,0,0,1-.42,2.42,5.39,5.39,0,0,1-1.19,1.87,5.31,5.31,0,0,1-1.85,1.21,6.59,6.59,0,0,1-2.41.42,6.34,6.34,0,0,1-2-.33,5.48,5.48,0,0,1-1.73-.95,5.55,5.55,0,0,1-1.27-1.46,5.26,5.26,0,0,1-.69-1.87h3.51a1.59,1.59,0,0,0,.75,1.1,2.87,2.87,0,0,0,1.48.36,2.91,2.91,0,0,0,1.17-.22,2.17,2.17,0,0,0,.77-.59,2.55,2.55,0,0,0,.42-.82,3.51,3.51,0,0,0,.13-.91V18.31a4.52,4.52,0,0,1-1.36.8,5,5,0,0,1-1.67.28,5.43,5.43,0,0,1-2.2-.43,4.81,4.81,0,0,1-1.71-1.18A5.26,5.26,0,0,1,113.35,16a6.85,6.85,0,0,1-.38-2.37V5.87h3.38v7.72a4.48,4.48,0,0,0,.08.72,2.47,2.47,0,0,0,.33.86,2.22,2.22,0,0,0,.74.72,2.62,2.62,0,0,0,1.31.29,2.46,2.46,0,0,0,1.86-.73,2.58,2.58,0,0,0,.71-1.86V5.87h3.38Z"/><path class="cls-9" d="M61.69,32.72h-2.4v-1a3.58,3.58,0,0,1-1.33.94,4.45,4.45,0,0,1-1.68.32,4.3,4.3,0,0,1-1.85-.4,4.93,4.93,0,0,1-1.5-1.1,5.29,5.29,0,0,1-1.39-3.64,5.49,5.49,0,0,1,.37-2A4.91,4.91,0,0,1,53,24.13,5,5,0,0,1,54.56,23a5.07,5.07,0,0,1,5.71,1.12,4.91,4.91,0,0,1,1,1.64,5.49,5.49,0,0,1,.37,2Zm-2.53-4.93A3,3,0,0,0,59,26.68a2.76,2.76,0,0,0-.54-.89,2.79,2.79,0,0,0-.81-.61,2.37,2.37,0,0,0-2.78.59,2.9,2.9,0,0,0-.55.9,3.14,3.14,0,0,0-.2,1.12,3,3,0,0,0,.2,1.1,2.8,2.8,0,0,0,.55.88,2.49,2.49,0,0,0,.81.59,2.37,2.37,0,0,0,1,.21,2.24,2.24,0,0,0,1-.22,3.12,3.12,0,0,0,.81-.59,3,3,0,0,0,.75-2Z"/><path class="cls-10" d="M78.33,32.72H75.8V26.94a3,3,0,0,0-.06-.53,1.72,1.72,0,0,0-.25-.62,1.49,1.49,0,0,0-.56-.52,2,2,0,0,0-1-.21,1.9,1.9,0,0,0-1.39.52A1.82,1.82,0,0,0,72,26.94v5.78H69.48V26.94a4,4,0,0,0,0-.53,1.9,1.9,0,0,0-.24-.62,1.53,1.53,0,0,0-.55-.52,2,2,0,0,0-1-.21,1.87,1.87,0,0,0-1.39.52,1.82,1.82,0,0,0-.53,1.36v5.78H63.19V27a4.77,4.77,0,0,1,.31-1.75,4.11,4.11,0,0,1,.9-1.4,3.9,3.9,0,0,1,1.4-.93,4.9,4.9,0,0,1,1.84-.34,4.18,4.18,0,0,1,1.81.38,3.79,3.79,0,0,1,1.34,1,4,4,0,0,1,1.36-1,4.19,4.19,0,0,1,1.79-.38,4.92,4.92,0,0,1,1.85.33,4,4,0,0,1,1.38.91A3.83,3.83,0,0,1,78,25.21a5.13,5.13,0,0,1,.3,1.79Z"/><path class="cls-11" d="M85,22.58a4.65,4.65,0,0,1,1.94.4,5,5,0,0,1,1.59,1.09,5.28,5.28,0,0,1,1.07,1.65,5.38,5.38,0,0,1,.4,2.07,5.31,5.31,0,0,1-.4,2.05,5.07,5.07,0,0,1-1.07,1.63,5.3,5.3,0,0,1-1.59,1.09,5,5,0,0,1-3.87,0,5,5,0,0,1-2.64-2.72,5.13,5.13,0,0,1-.4-2.05,5.38,5.38,0,0,1,1.46-3.72A4.71,4.71,0,0,1,83,23,4.63,4.63,0,0,1,85,22.58Zm0,8.05a2.2,2.2,0,0,0,1-.21,2.38,2.38,0,0,0,.78-.57,2.92,2.92,0,0,0,.53-.89,3.28,3.28,0,0,0,.19-1.16,3.42,3.42,0,0,0-.19-1.17,3.08,3.08,0,0,0-.53-.92,2.6,2.6,0,0,0-.78-.59,2.2,2.2,0,0,0-1-.21,2.23,2.23,0,0,0-.95.21,2.37,2.37,0,0,0-.78.59,3.06,3.06,0,0,0-.52.92,3.42,3.42,0,0,0-.19,1.17A3.28,3.28,0,0,0,82.71,29a2.9,2.9,0,0,0,.52.89,2.19,2.19,0,0,0,.78.57A2.23,2.23,0,0,0,85,30.63Z"/><path class="cls-12" d="M96.82,25a2.39,2.39,0,0,0-1.95.36A1.91,1.91,0,0,0,94.13,27v5.72H91.6V27A4.9,4.9,0,0,1,92,25.08a3.92,3.92,0,0,1,1-1.46,4,4,0,0,1,1.64-.86,5.64,5.64,0,0,1,2.2-.12Z"/><path class="cls-13" d="M107.55,29.57A4.65,4.65,0,0,1,105.87,32a5.42,5.42,0,0,1-5.08.53,5.15,5.15,0,0,1-1.61-1.11,5.28,5.28,0,0,1-1.09-1.64,5.22,5.22,0,0,1-.39-2,5.17,5.17,0,0,1,1.48-3.68A5.15,5.15,0,0,1,100.79,23a4.72,4.72,0,0,1,2-.42,5.3,5.3,0,0,1,1.69.28,4.91,4.91,0,0,1,1.45.81A4.73,4.73,0,0,1,107,25a5.16,5.16,0,0,1,.62,1.77l-7,2.94a2.62,2.62,0,0,0,.92.77,2.49,2.49,0,0,0,1.19.28,2.63,2.63,0,0,0,1.19-.28,2,2,0,0,0,.9-.87Zm-2.84-3.88a2.36,2.36,0,0,0-.85-.65,2.65,2.65,0,0,0-1.11-.23,2.58,2.58,0,0,0-1,.21,2.46,2.46,0,0,0-.83.59,2.92,2.92,0,0,0-.58.89,3,3,0,0,0-.24,1.15Z"/><path class="cls-14" d="M13.16,1.66c4,.92,9.53,6.44,7.28,8.15-3.46,2.57-4.15.73-5.34-1-3.68-5.2-12.66,0-8.93,5.88.13.19.37.47.64.79h0A16,16,0,0,0,10.49,19L8.1,24.26l5.52-2.49c1.66,1.38,3.22,2.62,4.47,3.45,3.59-2.48,10.68-8.69,11.83-10.54a5.1,5.1,0,0,0-1.71-7.22,4.91,4.91,0,0,0-4-.64,5,5,0,0,0-2.53,1.33,13,13,0,0,0-1.06-2.07,9.91,9.91,0,0,0-2-2.35A11.32,11.32,0,0,1,23,1.66,10.65,10.65,0,0,1,35.81,9.49a9.89,9.89,0,0,1-1.34,8c-1,1.65-13,11.64-15.6,13.38a1.65,1.65,0,0,1-1.61,0c-.88-.59-2.9-2.16-5.2-4.09L3.4,30.83l-1.61.74.56-1.7L5.8,19l.46-1.7-.32.87L4.83,20.62a35.32,35.32,0,0,1-3.22-3.17C-3.32,9.62,3.77-.46,13.16,1.66Zm2,23.65Z"/><path class="cls-15" d="M36.14,10.64c6.57-1.48,11.53,5.57,8.09,11A24.53,24.53,0,0,1,42,23.91L41.2,22.2,41,21.59l.32,1.19,2.42,7.6.39,1.19L43,31.06l-6.06-2.87c-1.61,1.35-3,2.45-3.64,2.87a1.19,1.19,0,0,1-1.13,0c-1.8-1.23-10.21-8.22-10.91-9.38a6.92,6.92,0,0,1-.94-5.57,7.45,7.45,0,0,1,9-5.47,7.76,7.76,0,0,1,3,1.45,7,7,0,0,0-1.39,1.64,8.62,8.62,0,0,0-.74,1.45,3.53,3.53,0,0,0-1.77-.93,3.45,3.45,0,0,0-2.81.45,3.58,3.58,0,0,0-1.19,5.05c.81,1.29,5.77,5.64,8.28,7.38a39.5,39.5,0,0,0,3.13-2.42l3.86,1.74L38,22.75a11.16,11.16,0,0,0,2.58-2.45h0c.19-.22.35-.42.45-.55,2.61-4.12-3.68-7.76-6.25-4.12-.84,1.22-1.32,2.51-3.74.71-1.58-1.19,2.32-5.06,5.09-5.7ZM34.72,27.19h0Z"/><g class="cls-16"><path class="cls-14" d="M13.16,1.66c4,.92,9.53,6.44,7.28,8.15-3.46,2.57-4.15.73-5.34-1-3.68-5.2-12.66,0-8.93,5.88.13.19.37.47.64.79h0A16,16,0,0,0,10.49,19L8.1,24.26l5.52-2.49c1.66,1.38,3.22,2.62,4.47,3.45,3.59-2.48,10.68-8.69,11.83-10.54a5.1,5.1,0,0,0-1.71-7.22,4.91,4.91,0,0,0-4-.64,5,5,0,0,0-2.53,1.33,13,13,0,0,0-1.06-2.07,9.91,9.91,0,0,0-2-2.35A11.32,11.32,0,0,1,23,1.66,10.65,10.65,0,0,1,35.81,9.49a9.89,9.89,0,0,1-1.34,8c-1,1.65-13,11.64-15.6,13.38a1.65,1.65,0,0,1-1.61,0c-.88-.59-2.9-2.16-5.2-4.09L3.4,30.83l-1.61.74.56-1.7L5.8,19l.46-1.7-.32.87L4.83,20.62a35.32,35.32,0,0,1-3.22-3.17C-3.32,9.62,3.77-.46,13.16,1.66Zm2,23.65Z"/></g></g></g></svg>